<?xml version="1.0" encoding="UTF-8"?>
<svg id="Layer_1" xmlns="http://www.w3.org/2000/svg" version="1.1" viewBox="0 0 1600 512">
  <!-- Generator: Adobe Illustrator 30.0.0, SVG Export Plug-In . SVG Version: 2.1.1 Build 123)  -->
  <defs>
    <style>
      .st0 {
        fill: #c96717;
      }

      .st1 {
        fill: #e57520;
      }

      .st2 {
        fill: #d36a1c;
      }

      .st3 {
        fill: #f4943d;
      }

      .st4 {
        display: none;
      }

      .st5 {
        fill: #999;
      }

      .title-fill {
        fill: #d9d9d9;
      }
    </style>
  </defs>
  <rect class="st4" width="512" height="512"/>
  <g id="DingClaw">
    <g>
      <path class="st0" d="M197.87,241.24l127.17,35.99-9.22,42.81,43.31,11.06v6.45l-98.61,76.95,16.13-61.28-46.54-.46,10.6-46.54-20.83-5.85c-17.92-5.03-28.99-22.95-25.47-41.22l3.45-17.9h0Z"/>
      <path class="st2" d="M260.54,414.48l16.85-64.02-46.62-.52,9.96-43.74-20.83-5.85c-17.92-5.03-28.99-22.95-25.47-41.22l3.45-17.9,127.17,35.99-9.22,42.81,43.31,11.06"/>
    </g>
    <g>
      <path class="st1" d="M170.21,194.17l14.84,4.12,13.45,20.13,13.94-12.52,15.66,22.54,16.5-13.6,12.31,20.52,17.38-12.26,11.99,18.13,17.27-9.99,35.95,9.99-12.61,57.6-120.27-32.68c-27.61-7.5-44.47-35.35-38.32-63.29l1.91-8.69h0Z"/>
      <circle class="st2" cx="228.1" cy="244.92" r="6.79"/>
      <circle class="st2" cx="287.89" cy="254.02" r="2.31"/>
    </g>
    <g>
      <path class="st3" d="M147.47,97.93l168.71,70.43c27.97,11.68,41.5,43.53,30.49,71.77l-7.73,19.82-36.6-15.54-12.15-24-19.8,10.97-10.36-26.29-24.43,10.98-11.95-20.63-19.05,7.46-10.74-21.56-13.49,11.27c-35.51-15.08-53.07-55.24-40.05-91.55h0c1.04-2.89,4.29-4.33,7.13-3.14h0Z"/>
      <circle class="st2" cx="210.25" cy="145.51" r="5.01"/>
      <circle class="st2" cx="313.75" cy="207.2" r="6.05"/>
      <circle class="st2" cx="167.04" cy="161.5" r="6.82"/>
      <circle class="st2" cx="266.58" cy="194.9" r="3.83"/>
    </g>
  </g>
  <g id="Title">
    <path class="title-fill" d="M537.45,188.74c0,8.69-1.84,16.07-5.53,22.12s-8.78,10.62-15.27,13.7c-6.49,3.08-13.99,4.62-22.5,4.62h-45.72v-14.09h12.6v-54.75h-12.6v-14.09h44.73c8.55,0,16.13,1.46,22.75,4.37,6.62,2.92,11.87,7.56,15.74,13.92,3.87,6.36,5.8,14.43,5.8,24.18ZM514.89,188.03c0-9.13-2.12-16.03-6.35-20.69-4.24-4.66-10.46-6.99-18.68-6.99h-7.32v54.75h5.06c7.45,0,13.18-1.26,17.19-3.77,4.02-2.51,6.7-5.7,8.06-9.57,1.36-3.87,2.04-8.45,2.04-13.73Z"/>
    <path class="title-fill" d="M580.58,215.87v13.32h-35.71v-13.32h8.8v-30.98h-8.8v-13.54h27.13v44.51h8.58ZM573.15,154.9c0,2.94-1,5.36-3,7.29-2,1.93-4.37,2.89-7.12,2.89s-5.18-1-7.18-3c-2-2-3-4.39-3-7.18s1-5.13,3-7.13c2-2,4.39-3,7.18-3s5.13,1,7.12,3c2,2,3,4.37,3,7.13Z"/>
    <path class="title-fill" d="M646.26,192.32v23.55h8.69v13.32h-27.18v-35.38c0-2.71-.41-4.69-1.24-5.92-.83-1.23-2.21-1.84-4.15-1.84-3.52,0-7.06,1.27-10.62,3.8v26.03h9.02v13.32h-36.15v-13.32h8.8v-30.98h-8.8v-13.54h27.13v5.45c5.5-4.14,11.15-6.22,16.95-6.22s10.12,1.83,13.1,5.47c2.97,3.65,4.46,9.07,4.46,16.26Z"/>
    <path class="title-fill" d="M699.02,178.45v-7.1h27.9v13.54h-9.57v43.19c0,9.06-2.48,15.97-7.43,20.74s-12.58,7.15-22.89,7.15c-11.41,0-19.92-2.09-25.53-6.27l8.97-12.16c4.73,2.9,9.39,4.35,13.97,4.35,3.85,0,6.83-.58,8.94-1.73,2.11-1.16,3.58-2.94,4.4-5.34.83-2.4,1.24-5.64,1.24-9.71v-3.14c-6.09,5.39-11.99,8.09-17.72,8.09-4.73,0-8.92-1.26-12.57-3.77-3.65-2.51-6.46-6.02-8.45-10.54-1.98-4.51-2.97-9.68-2.97-15.52s1.05-10.84,3.16-15.35,5.09-8.02,8.94-10.54c3.85-2.51,8.14-3.77,12.88-3.77,6.86,0,12.43,2.62,16.73,7.87ZM687.52,215.1c3.37,0,6.15-1.29,8.33-3.88,2.18-2.59,3.27-6.17,3.27-10.76s-1.04-8.33-3.11-11c-2.07-2.68-4.91-4.02-8.5-4.02s-6.24,1.38-8.25,4.13-3.03,6.35-3.03,10.78,1.01,7.78,3.03,10.56c2.02,2.79,4.77,4.18,8.25,4.18Z"/>
    <path class="title-fill" d="M765.58,171.35v13.54h-10.67v25.25c0,1.8.35,3.15,1.05,4.04.7.9,2,1.35,3.91,1.35,1.58,0,3.48-.4,5.72-1.21v12.82c-4.95,1.94-9.61,2.92-13.98,2.92-5.03,0-8.79-1.27-11.31-3.82-2.51-2.55-3.77-6.15-3.77-10.81v-30.54h-7.32v-13.54h7.32v-8.97l18.38-13.21v22.17h10.67Z"/>
    <path class="title-fill" d="M825.21,194.46v21.4h9.35v13.32h-27.73v-4.51c-5.25,3.6-10.49,5.39-15.74,5.39-6.35,0-11.43-1.63-15.24-4.9-3.82-3.26-5.72-7.67-5.72-13.21,0-5.87,2.14-10.57,6.41-14.11,4.27-3.54,9.95-5.31,17.03-5.31,2.46,0,4.65.27,6.58.8,1.93.53,4.15,1.44,6.69,2.72v-4.62c0-2.93-.92-5.28-2.75-7.04s-4.58-2.64-8.25-2.64c-4,0-7.54,1.54-10.62,4.62l-14.86-2.7c4.51-9.1,13.83-13.65,27.95-13.65,9.68,0,16.59,1.99,20.71,5.97,4.13,3.98,6.19,10.13,6.19,18.46ZM795.23,218.56c3.3,0,7.17-1.98,11.61-5.94v-5.17c-3.96-2.57-7.59-3.85-10.89-3.85-2.64,0-4.66.62-6.05,1.87-1.39,1.25-2.09,3.03-2.09,5.34,0,5.17,2.48,7.76,7.43,7.76Z"/>
    <path class="title-fill" d="M872.3,215.87v13.32h-35.71v-13.32h9.02v-56.34h-9.02v-13.26h27.51v69.6h8.2Z"/>
    <path class="title-fill" d="M909.16,216.47v12.71h-34.72v-13.32h9.24v-56.34h-9.24v-13.26h27.73v70.21h6.99ZM909.71,171.35h34.94v11.72h-5.72l-17.06,14.47,15.46,18.32h7.98v13.32h-18.38l-24.65-30.54,19.59-16.12h-12.16v-11.17Z"/>
    <path class="title-fill" d="M1046.74,152.65v-6.38h14.09v29.16h-14.09c-4.15-10.53-11.06-15.79-20.74-15.79-4.81,0-9.07,1.25-12.79,3.74-3.72,2.5-6.62,5.9-8.69,10.21-2.07,4.31-3.11,9.09-3.11,14.33,0,4.92.98,9.42,2.94,13.51,1.96,4.09,4.71,7.35,8.23,9.79,3.52,2.44,7.57,3.66,12.16,3.66,5.65,0,10.55-1.95,14.72-5.86,4.16-3.91,6.96-9.05,8.39-15.43l16.34,7.76c-6.16,19.22-19.83,28.83-40.99,28.83-9.1,0-17.05-1.74-23.85-5.23-6.8-3.48-12.04-8.44-15.71-14.86-3.67-6.42-5.5-13.92-5.5-22.5,0-8.11,1.89-15.41,5.67-21.9,3.78-6.49,9-11.58,15.65-15.27s14.11-5.53,22.37-5.53c10.01,0,18.32,2.59,24.92,7.76Z"/>
    <path class="title-fill" d="M1111.33,170.03c5.87,0,10.28,1.78,13.23,5.34,2.95,3.56,4.43,8.73,4.43,15.52v24.98h8.58v13.32h-27.07v-37.42c0-2.38-.45-4.09-1.35-5.12-.9-1.03-2.39-1.54-4.48-1.54-2.86,0-6.09,1.17-9.68,3.52v27.24h8.09v13.32h-35.82v-13.32h9.35v-56.34h-9.35v-13.26h27.73v29.82c5.94-4.03,11.39-6.05,16.34-6.05Z"/>
    <path class="title-fill" d="M1193.57,194.46v21.4h9.35v13.32h-27.73v-4.51c-5.25,3.6-10.49,5.39-15.74,5.39-6.35,0-11.43-1.63-15.24-4.9-3.82-3.26-5.72-7.67-5.72-13.21,0-5.87,2.14-10.57,6.41-14.11,4.27-3.54,9.95-5.31,17.03-5.31,2.46,0,4.65.27,6.58.8,1.93.53,4.15,1.44,6.69,2.72v-4.62c0-2.93-.92-5.28-2.75-7.04s-4.58-2.64-8.25-2.64c-4,0-7.54,1.54-10.62,4.62l-14.86-2.7c4.51-9.1,13.83-13.65,27.95-13.65,9.68,0,16.59,1.99,20.71,5.97,4.13,3.98,6.19,10.13,6.19,18.46ZM1163.59,218.56c3.3,0,7.17-1.98,11.61-5.94v-5.17c-3.96-2.57-7.59-3.85-10.89-3.85-2.64,0-4.66.62-6.05,1.87-1.39,1.25-2.09,3.03-2.09,5.34,0,5.17,2.48,7.76,7.43,7.76Z"/>
    <path class="title-fill" d="M1268.28,192.32v23.55h8.69v13.32h-27.18v-35.38c0-2.71-.41-4.69-1.24-5.92-.83-1.23-2.21-1.84-4.15-1.84-3.52,0-7.06,1.27-10.62,3.8v26.03h9.02v13.32h-36.15v-13.32h8.8v-30.98h-8.8v-13.54h27.13v5.45c5.5-4.14,11.15-6.22,16.95-6.22s10.12,1.83,13.1,5.47c2.97,3.65,4.46,9.07,4.46,16.26Z"/>
    <path class="title-fill" d="M1342.55,192.32v23.55h8.69v13.32h-27.18v-35.38c0-2.71-.41-4.69-1.24-5.92-.83-1.23-2.21-1.84-4.15-1.84-3.52,0-7.06,1.27-10.62,3.8v26.03h9.02v13.32h-36.15v-13.32h8.8v-30.98h-8.8v-13.54h27.13v5.45c5.5-4.14,11.15-6.22,16.95-6.22s10.12,1.83,13.1,5.47c2.97,3.65,4.46,9.07,4.46,16.26Z"/>
    <path class="title-fill" d="M1414.89,204.15h-43.14c.44,4.44,1.97,7.95,4.59,10.54,2.62,2.59,6.01,3.88,10.15,3.88,4.58,0,9.06-2.27,13.43-6.82l14.31,4.62c-3.16,4.73-7.06,8.28-11.72,10.65-4.66,2.37-10.18,3.55-16.56,3.55s-12.02-1.2-16.92-3.6c-4.9-2.4-8.69-5.8-11.39-10.21-2.7-4.4-4.04-9.57-4.04-15.52s1.4-11.19,4.21-15.96c2.81-4.77,6.6-8.5,11.39-11.2,4.79-2.7,9.99-4.04,15.6-4.04,6.09,0,11.39,1.4,15.9,4.21s7.99,6.79,10.43,11.94c2.44,5.15,3.69,11.14,3.77,17.96ZM1383.92,182.3c-3.3,0-5.95.95-7.95,2.86-2,1.91-3.26,4.82-3.77,8.75h24.1c-.51-3.45-1.92-6.25-4.21-8.39-2.29-2.15-5.02-3.22-8.17-3.22Z"/>
    <path class="title-fill" d="M1453.29,215.87v13.32h-35.71v-13.32h9.02v-56.34h-9.02v-13.26h27.51v69.6h8.2Z"/>
  </g>
  <g id="Subtitle">
    <path class="st5" d="M502.95,305.7v-13.87h-31.09v24.6h26.79v10.34h-26.79v27.29h10.56v10.34h-33.56v-10.34h10.45v-62.23h-10.45v-10.34h64.32v24.21h-10.23Z"/>
    <path class="st5" d="M568.86,335.57c0,5.61-1.34,10.75-4.02,15.41-2.68,4.66-6.33,8.35-10.95,11.06-4.62,2.71-9.74,4.07-15.35,4.07s-11.02-1.36-15.68-4.07c-4.66-2.71-8.28-6.4-10.87-11.06-2.59-4.66-3.88-9.79-3.88-15.41s1.29-11.12,3.88-15.74c2.59-4.62,6.19-8.24,10.81-10.87,4.62-2.62,9.87-3.93,15.74-3.93s10.84,1.38,15.46,4.15c4.62,2.77,8.25,6.48,10.89,11.14s3.96,9.74,3.96,15.24ZM538.54,355.05c3.37,0,6.47-.88,9.3-2.64,2.82-1.76,5.02-4.13,6.6-7.1,1.58-2.97,2.37-6.22,2.37-9.74s-.79-6.66-2.37-9.63c-1.58-2.97-3.78-5.37-6.6-7.18-2.83-1.82-5.96-2.72-9.41-2.72s-6.47.89-9.3,2.67-5.04,4.17-6.66,7.18c-1.61,3.01-2.42,6.24-2.42,9.68s.81,6.68,2.42,9.68c1.61,3.01,3.85,5.39,6.71,7.15s5.98,2.64,9.35,2.64Z"/>
    <path class="st5" d="M595.7,341.18v13.09h12.6v10.12h-35.49v-10.12h11.61v-37.52h-11.61v-10.18h20.63v13.1c2.31-5.17,5.18-8.78,8.61-10.81,3.43-2.04,8.34-3.05,14.72-3.05h2.59v11.5h-2.48c-6.16,0-10.75.81-13.76,2.42-3.01,1.61-5,4.05-5.97,7.32-.97,3.26-1.46,7.98-1.46,14.14Z"/>
    <path class="st5" d="M737.69,322.7c0,8.44-1.86,15.94-5.58,22.5-3.72,6.57-8.87,11.64-15.43,15.21-6.57,3.58-14.03,5.37-22.39,5.37s-15.59-1.86-22.01-5.58c-6.42-3.72-11.42-8.88-14.99-15.46-3.58-6.58-5.36-14-5.36-22.26s1.82-15.48,5.47-21.9c3.65-6.42,8.68-11.44,15.1-15.05,6.42-3.61,13.72-5.42,21.9-5.42s16.05,1.86,22.61,5.58c6.57,3.72,11.66,8.81,15.27,15.27,3.61,6.46,5.42,13.7,5.42,21.73ZM694.77,354.72c5.68,0,10.76-1.49,15.24-4.46,4.48-2.97,7.93-6.91,10.37-11.83,2.44-4.92,3.66-10.16,3.66-15.74s-1.29-10.96-3.88-15.82c-2.59-4.86-6.15-8.69-10.7-11.5-4.55-2.81-9.68-4.21-15.41-4.21s-10.58,1.37-14.91,4.1c-4.33,2.73-7.67,6.5-10.04,11.31-2.37,4.81-3.55,10.14-3.55,16.01,0,6.24,1.18,11.79,3.55,16.67s5.77,8.67,10.21,11.39c4.44,2.72,9.59,4.07,15.46,4.07Z"/>
    <path class="st5" d="M812.29,335.79c0,5.39-1.25,10.44-3.74,15.13-2.49,4.7-5.9,8.4-10.21,11.11-4.31,2.71-9.09,4.07-14.33,4.07-7.74,0-14.51-2.97-20.3-8.91v23h11.28v10.12h-33.12v-10.12h10.45v-63.44h-9.68v-10.18h21.07v9.24c2.86-3.38,6.02-5.89,9.46-7.54s7.13-2.48,11.06-2.48c5.47,0,10.33,1.35,14.58,4.04,4.25,2.7,7.57,6.34,9.93,10.92,2.37,4.58,3.55,9.59,3.55,15.02ZM783.84,355.71c3.15,0,6-.92,8.53-2.75s4.51-4.33,5.94-7.48c1.43-3.15,2.15-6.49,2.15-10.01s-.79-6.83-2.37-9.82c-1.58-2.99-3.74-5.37-6.49-7.15-2.75-1.78-5.85-2.67-9.3-2.67s-6.82.94-9.68,2.83c-2.86,1.89-5.08,4.39-6.66,7.51-1.58,3.12-2.37,6.55-2.37,10.29,0,6.02,1.9,10.73,5.69,14.14,3.8,3.41,8.65,5.12,14.55,5.12Z"/>
    <path class="st5" d="M879.07,338.38h-48.47c.7,5.54,2.84,9.91,6.44,13.12s8,4.81,13.21,4.81c3.81,0,7.35-.79,10.62-2.37s6-4,8.2-7.26l10.01,4.51c-3.16,4.92-7.29,8.63-12.41,11.14-5.12,2.51-10.68,3.77-16.7,3.77s-11.78-1.3-16.62-3.91c-4.84-2.6-8.61-6.24-11.31-10.89s-4.04-9.9-4.04-15.74,1.33-11.02,3.99-15.68c2.66-4.66,6.3-8.3,10.92-10.92,4.62-2.62,9.72-3.93,15.3-3.93,6.09,0,11.4,1.35,15.93,4.04,4.53,2.7,8.1,6.55,10.7,11.55s4.02,10.92,4.24,17.74ZM848.42,314.5c-4.29,0-8.05,1.44-11.28,4.32-3.23,2.88-5.3,6.69-6.22,11.42h36.2c-1.06-4.73-3.32-8.54-6.77-11.42-3.45-2.88-7.43-4.32-11.94-4.32Z"/>
    <path class="st5" d="M939.91,325.5v28.78h9.68v10.12h-21.07v-38.19c0-3.63-.52-6.24-1.57-7.81-1.05-1.58-2.76-2.37-5.14-2.37-5.06,0-10.75,2.5-17.06,7.48v30.76h9.96v10.12h-31.36v-10.12h10.18v-37.52h-10.18v-10.18h21.4v6.99c7.08-5.17,13.74-7.76,19.97-7.76,5.17,0,9,1.6,11.47,4.79,2.48,3.19,3.71,8.16,3.71,14.91Z"/>
    <path class="st5" d="M1023.42,290.62v-9.13h10.56v26.58h-10.78c-2.71-5.32-6.44-9.46-11.17-12.43-4.73-2.97-9.92-4.46-15.57-4.46s-10.34,1.44-14.64,4.32c-4.29,2.88-7.64,6.73-10.04,11.55-2.4,4.82-3.6,10.01-3.6,15.54s1.26,11,3.77,15.85c2.51,4.84,5.97,8.71,10.37,11.61,4.4,2.9,9.3,4.35,14.69,4.35,6.64,0,12.51-2.03,17.61-6.08,5.1-4.05,8.82-9.8,11.17-17.25l10.56,5.61c-2.86,9.24-7.92,16.41-15.16,21.49-7.25,5.08-15.75,7.62-25.5,7.62-8.03,0-15.17-1.92-21.4-5.75-6.24-3.83-11.09-8.99-14.55-15.46-3.47-6.47-5.2-13.58-5.2-21.32,0-8.4,1.77-15.88,5.31-22.45,3.54-6.57,8.43-11.66,14.66-15.27,6.24-3.61,13.37-5.42,21.4-5.42,5.39,0,10.36.9,14.91,2.7,4.55,1.8,8.75,4.4,12.6,7.81Z"/>
    <path class="st5" d="M1071.56,354.28v10.12h-30.43v-10.12h10.23v-62.78h-10.23v-10.01h21.62v72.79h8.8Z"/>
    <path class="st5" d="M1125.85,326.99v27.29h9.68v10.12h-19.7v-7.1c-5.5,5.39-11.63,8.09-18.38,8.09-3.56,0-6.81-.83-9.77-2.48-2.95-1.65-5.32-3.86-7.1-6.63-1.78-2.77-2.67-5.84-2.67-9.22,0-3.63.98-6.87,2.94-9.71,1.96-2.84,4.61-5.04,7.95-6.58,3.34-1.54,6.69-2.31,10.07-2.31,5.65,0,10.91,1.65,15.79,4.95v-6.22c0-4.51-.96-7.74-2.86-9.68-1.91-1.94-5.04-2.92-9.41-2.92-3.08,0-5.66.56-7.73,1.68s-3.79,2.82-5.14,5.09l-10.89-2.7c2.46-4.58,5.78-8.01,9.96-10.26s9.15-3.38,14.91-3.38c7.74,0,13.4,1.76,16.97,5.28,3.58,3.52,5.36,9.08,5.36,16.67ZM1099,356.65c5.58,0,10.8-2.33,15.68-6.99v-6.77c-4.95-3.85-9.9-5.78-14.86-5.78-3.01,0-5.6.95-7.79,2.83-2.18,1.89-3.27,4.26-3.27,7.12s.95,5.03,2.86,6.85c1.91,1.82,4.37,2.72,7.37,2.72Z"/>
    <path class="st5" d="M1153.46,316.75l10.95,34.83,11-34.83h-6.16v-10.18h27.79v10.18h-6.38l11.17,34.83,11.11-34.83h-7.98v-10.18h26.03v10.18h-8.36l-15.41,48.64h-10.73l-13.26-41.76-13.43,41.76h-10.62l-15.52-48.64h-6.99v-10.18h24.32v10.18h-7.54Z"/>
  </g>
</svg>
